<svg width="800" height="800" viewBox="0 0 800 800" fill="none" xmlns="http://www.w3.org/2000/svg">
<path d="M400 447C465.722 447 519 393.498 519 327.5C519 261.502 465.722 208 400 208C334.278 208 281 261.502 281 327.5C281 393.498 334.278 447 400 447Z" stroke="black" stroke-width="62" stroke-linecap="round" stroke-linejoin="round"/>
<path d="M567 686C567 641.709 549.405 599.232 518.087 567.913C486.768 536.595 444.291 519 400 519C355.709 519 313.232 536.595 281.913 567.913C250.595 599.232 233 641.709 233 686H567Z" stroke="black" stroke-width="62" stroke-linecap="round" stroke-linejoin="round"/>
<path d="M590.556 352C610.916 352 630.938 346.793 648.721 336.874C666.504 326.955 681.457 312.652 692.161 295.325C702.865 277.997 708.964 258.22 709.879 237.871C710.794 217.522 706.495 197.277 697.39 179.058C688.285 160.839 674.675 145.251 657.855 133.774C641.034 122.297 621.56 115.312 601.282 113.483C581.004 111.654 560.596 115.04 541.994 123.322C523.393 131.603 507.216 144.504 495 160.8" stroke="black" stroke-width="62" stroke-linecap="round" stroke-linejoin="round"/>
<path d="M614.857 590H758C758 545.709 740.405 503.232 709.087 471.913C677.768 440.595 635.291 423 591 423" stroke="black" stroke-width="62" stroke-linecap="round" stroke-linejoin="round"/>
<path d="M305 160.8C292.784 144.504 276.607 131.603 258.006 123.322C239.404 115.04 218.995 111.654 198.718 113.483C178.44 115.312 158.966 122.297 142.145 133.774C125.325 145.251 111.715 160.839 102.61 179.058C93.5048 197.277 89.2056 217.522 90.1207 237.871C91.0359 258.22 97.135 277.997 107.839 295.325C118.543 312.652 133.496 326.955 151.279 336.874C169.062 346.793 189.084 352 209.444 352" stroke="black" stroke-width="62" stroke-linecap="round" stroke-linejoin="round"/>
<path d="M209 423C164.709 423 122.232 440.595 90.9132 471.913C59.5946 503.232 42 545.709 42 590H185.143" stroke="black" stroke-width="62" stroke-linecap="round" stroke-linejoin="round"/>
</svg>
